<svg xmlns="http://www.w3.org/2000/svg" viewBox="0 0 573.62 410.32"><defs><style>.cls-1{fill:#fff;}</style></defs><g id="Layer_2" data-name="Layer 2"><g id="Layer_1-2" data-name="Layer 1"><path class="cls-1" d="M96.81,63.35A30.36,30.36,0,1,0,127.16,33,30.39,30.39,0,0,0,96.81,63.35Z"/><path d="M551.8,46.85H188.33A63.35,63.35,0,0,0,66,46.85H16.5a16.5,16.5,0,0,0,0,33H66a63.35,63.35,0,0,0,122.33,0H551.8a16.5,16.5,0,1,0,0-33ZM127.16,93.71a30.36,30.36,0,1,1,30.36-30.36A30.39,30.39,0,0,1,127.16,93.71Z"/><path class="cls-1" d="M471.49,347a30.36,30.36,0,1,0-30.35,30.35A30.39,30.39,0,0,0,471.49,347Z"/><path d="M551.8,330.47H502.3a63.34,63.34,0,0,0-122.32,0H16.5a16.5,16.5,0,0,0,0,33H380a63.35,63.35,0,0,0,122.32,0h49.5a16.5,16.5,0,0,0,0-33ZM441.14,377.32A30.36,30.36,0,1,1,471.49,347,30.39,30.39,0,0,1,441.14,377.32Z"/><path class="cls-1" d="M308.3,205.16A30.36,30.36,0,1,0,278,235.51,30.38,30.38,0,0,0,308.3,205.16Z"/><path d="M557.12,188.66h-218a63.35,63.35,0,0,0-122.32,0h-195a16.5,16.5,0,0,0,0,33h195a63.35,63.35,0,0,0,122.32,0h218a16.5,16.5,0,0,0,0-33ZM278,235.51a30.35,30.35,0,1,1,30.35-30.35A30.39,30.39,0,0,1,278,235.51Z"/></g></g></svg>