<svg xmlns="http://www.w3.org/2000/svg" viewBox="0 0 122.44 152.88"><defs><style>.cls-1{fill-rule:evenodd;}</style></defs><g id="Layer_2" data-name="Layer 2"><g id="Layer_1-2" data-name="Layer 1"><path class="cls-1" d="M122.44,2c-34,46.2.08,132.68-88,127.18.78-2.41,1.58-4.8,2.43-7.18C110.3,125.31,85.09,55.8,110.52,7.39,91.68,6.09,69,13.63,53.8,21.47,12.14,43-8.28,77.71,21.86,113.39c-1,2.61-1.89,5.26-2.77,7.91C-45.94,51.27,71.94-12.29,122.44,2"/><path class="cls-1" d="M74.25,34.87c3.71-4.26,9.71,0,5.5,4.8A248.11,248.11,0,0,0,24.42,147.06q-.69,2.92-1.3,5.82l-6.49-4.46A255,255,0,0,1,74.25,34.87"/></g></g></svg>