<svg xmlns="http://www.w3.org/2000/svg" viewBox="0 0 1369.93 761.49"><defs><style>.cls-1{fill:#3880ff;}</style></defs><g id="Layer_2" data-name="Layer 2"><g id="ò__1" data-name="ò‡_1"><path class="cls-1" d="M1226.82,474.73a242.67,242.67,0,0,0,2.26-33c0-132.89-107.73-240.62-240.63-240.62a240.16,240.16,0,0,0-82.23,14.42C853.45,86.71,723.3,0,576.41,0h0C380.6,0,221.87,152.25,221.87,340.05c0,7.59.31,15.17.83,22.74-5.09-.44-10.19-.66-15.29-.73C92.87,362.06,0,451.11,0,561S92.86,759.9,207.41,759.9c43.88-.06,996.09,1.59,1019.13,1.59a143.38,143.38,0,0,0,.28-286.76ZM941.32,635.86c-5.84-11.59-15.48-25.2-30.27-40.09C611,752.62,412.9,297,412.9,297c511.73-86,555.68,174.91,552.72,244.78C759.88,345.16,569.35,366,569.35,366s166.76,20.6,351.54,192.47c23.52,21.87,40.8,44.45,50.67,65.6Z"/></g></g></svg>