<?xml version="1.0" encoding="UTF-8"?><svg xmlns="http://www.w3.org/2000/svg" xmlns:xlink="http://www.w3.org/1999/xlink" viewBox="0 0 340 340"><defs><style>.u{fill:url(#h);}.v{fill:rgba(19,21,20,.25);}.v,.w{isolation:isolate;opacity:.75;}.x{fill:#fff;}.x,.y{fill-rule:evenodd;}</style><linearGradient id="h" x1="-132.11" y1="702.47" x2="-132.11" y2="700.84" gradientTransform="translate(45087 238658) scale(340 -340)" gradientUnits="userSpaceOnUse"><stop offset="0" stop-color="#65d09b"/><stop offset="1" stop-color="#4db38e"/></linearGradient></defs><g id="a"/><g id="b"><g id="c"><g id="d"><g id="e" transform="translate(-415.000000, -351.000000)"><g id="f" transform="translate(415.000000, 351.000000)"><g id="g" transform="translate(0.000000, 15.000000)"><rect id="i" class="u" width="340" height="340" rx="70" ry="70"/><path id="j" class="w" d="M237.61,138.16c-2.89-2.88-7.56-2.88-10.45,0s-2.89,7.54,0,10.42c7.78,7.75,12.06,18.02,12.06,28.92s-4.28,21.17-12.06,28.93c-2.89,2.88-2.89,7.54,0,10.42,1.44,1.44,3.33,2.16,5.22,2.16s3.78-.72,5.22-2.16c10.57-10.54,16.39-24.51,16.39-39.34s-5.82-28.8-16.39-39.34Z"/><path id="k" class="v" d="M267.33,113.16c-2.82-2.88-7.39-2.88-10.22,0-2.82,2.88-2.82,7.55,0,10.43,28.59,29.18,28.59,76.65,0,105.83-2.82,2.88-2.82,7.55,0,10.43,1.41,1.44,3.26,2.16,5.11,2.16s3.7-.72,5.11-2.16c34.22-34.92,34.22-91.75,0-126.68Z"/><g id="l"><path id="m" class="y" d="M55.5,167H196.5c7.46,0,13.5,6.04,13.5,13.5h0c0,7.46-6.04,13.5-13.5,13.5H55.5c-7.46,0-13.5-6.04-13.5-13.5h0c0-7.46,6.04-13.5,13.5-13.5Z"/><path id="n" class="x" d="M55.5,167H196.5c7.46,0,13.5,6.04,13.5,13.5h0c0,7.46-6.04,13.5-13.5,13.5H55.5c-7.46,0-13.5-6.04-13.5-13.5h0c0-7.46,6.04-13.5,13.5-13.5Z"/></g><g id="o"><path id="p" class="y" d="M53.5,110h117c6.9,0,12.5,5.6,12.5,12.5h0c0,6.9-5.6,12.5-12.5,12.5H53.5c-6.9,0-12.5-5.6-12.5-12.5h0c0-6.9,5.6-12.5,12.5-12.5Z"/><path id="q" class="x" d="M53.5,110h117c6.9,0,12.5,5.6,12.5,12.5h0c0,6.9-5.6,12.5-12.5,12.5H53.5c-6.9,0-12.5-5.6-12.5-12.5h0c0-6.9,5.6-12.5,12.5-12.5Z"/></g><g id="r"><path id="s" class="y" d="M53.5,226h80c6.9,0,12.5,5.6,12.5,12.5h0c0,6.9-5.6,12.5-12.5,12.5H53.5c-6.9,0-12.5-5.6-12.5-12.5h0c0-6.9,5.6-12.5,12.5-12.5Z"/><path id="t" class="x" d="M53.5,226h80c6.9,0,12.5,5.6,12.5,12.5h0c0,6.9-5.6,12.5-12.5,12.5H53.5c-6.9,0-12.5-5.6-12.5-12.5h0c0-6.9,5.6-12.5,12.5-12.5Z"/></g></g></g></g></g></g></g></svg>