<svg xmlns="http://www.w3.org/2000/svg" viewBox="0 0 1136.02 1910.88"><defs><style>.cls-1{fill-rule:evenodd;}</style></defs><g id="Layer_2" data-name="Layer 2"><g id="Layer_1-2" data-name="Layer 1"><path class="cls-1" d="M570.08,1885.76c11.8-170.7,17.19-341.88,18.53-513.19q1.5-192.32-2.79-384.68c-2.76-128.17-7.26-256.24-11.75-384.09-5.26-117.7-12.6-234.9-17.45-352.26-3.22-77.95-5.39-155.94-4.85-234.2a17,17,0,0,0-33.93-.75c-3,78.81-3.32,157.43-2.36,236.05,1.45,117.5,5.8,234.89,7.85,352.73q5.19,191.52,8.65,383.57c2.22,127.71,3.68,255.49,2.66,383.2-1.35,170.21-6.67,340.29-18.4,509.89a27,27,0,0,0,53.84,3.73Z"/><path class="cls-1" d="M576.86,684.17C664,626.43,747.48,563.94,825.63,495.07c31.22-27.5,61.62-55.93,90.86-85.62,43.72-44.39,84.55-91.28,125.07-138.9a13.07,13.07,0,0,0-18.92-18c-45.12,42.27-91.71,82.3-138.35,122.55-32.54,28.09-65,56.13-98,83.53-14.15,11.73-28.22,23.54-42.47,35.14C680.61,545.2,615.31,594,547.1,639.15a27,27,0,1,0,29.76,45Z"/><path class="cls-1" d="M560.85,1048.31c-85.13-46.37-189.27-123.79-288.25-207.82-55.81-47.39-109.43-97.31-157.45-145.35-36.51-36.53-70.37-70.83-97.07-104.91a9.87,9.87,0,1,0-16.41,11,876.51,876.51,0,0,0,82.69,121.7c44,54.07,97.27,107.54,153.14,157.76,99.75,89.65,209.64,167,297.5,215a27,27,0,1,0,25.85-47.37Z"/><path class="cls-1" d="M576.52,1536.86A1723.49,1723.49,0,0,0,772,1391.17c40.58-35,80.09-72.21,117.86-111.65A1769.68,1769.68,0,0,0,1045.7,1093.1c31.55-43.61,60.63-89,88.18-135.47a13.21,13.21,0,1,0-22.16-14.39c-30.71,43.33-63.53,84.93-97.21,125.74A2236.77,2236.77,0,0,1,854,1244c-38,37.16-76.87,72.8-116.71,106.47-61.42,51.91-124.8,99.44-189.81,141a27,27,0,1,0,29.09,45.45Z"/></g></g></svg>