<svg xmlns="http://www.w3.org/2000/svg" viewBox="0 0 1350 1417.9"><defs><style>.cls-1{fill:#292929;}</style></defs><g id="Layer_2" data-name="Layer 2"><g id="Layer_1-2" data-name="Layer 1"><path class="cls-1" d="M839.38,1417.9s-90-88.5-97.5-274.49-13.5-333,129-391.48,274.49,60,274.49,60-78.79-113.93-214.49-108C845.31,707.67,797,735.34,797,735.34s84-133,207.4-227.9c128.67-99,104.6-255.1,104.6-255.1s.7,137.55-105.82,216.55C883.15,557.89,755,657.34,716,762.34c0,0-3.63-233.9,5-303,11-88,47-190,109-287,0,0-86,68.77-129,195-23.51,69-34,140-34,140s-17.66-76.95-73.91-124.11C525.57,326.66,452,326.34,452,326.34s96.46,27.11,138.5,102C653.09,539.89,639.14,781,645.14,883c0,0-20.5-130-219.17-232.69-144.41-74.63-184-124-218-214,0,0,13.89,136.09,168.68,224,147.33,83.67,178,149.34,178,149.34S450.31,763.09,352,827c-66.66,43.33-105.81,89.33-105.81,89.33s79.81-60,147.81-82c99.32-32.13,159.1,31.45,175.42,51.58,54.61,67.36,55,185.11,55,270.39,0,70.57,1.16,138.38-93.5,261.59,0,0,126.83-53.62,145.78-32.55C705.67,1417.61,839.38,1417.9,839.38,1417.9Z"/><path class="cls-1" d="M883.77,478.43C911.84,411,876,332,876,332s-81.39,30.21-109.47,97.6-6.31,180.36-6.31,180.36S855.7,545.83,883.77,478.43Z"/><path class="cls-1" d="M1022.63,563.68c-62,11.49-120,100-120,100s97.66,22.91,159.71,11.69,114.36-79.3,114.36-79.3S1125.46,544.61,1022.63,563.68Z"/><path class="cls-1" d="M836.32,870.14c-4,47.35,32.8,102.53,32.8,102.53s50.21-48,56.31-95.1c8.57-66.29-40-100.2-40-100.2S840.27,822.79,836.32,870.14Z"/><path class="cls-1" d="M295.26,957.64c31.73-53.77,113-85,113-85s31.7,67.45-11.85,144.74c-30.64,54.4-119,77-119,77S263.52,1011.42,295.26,957.64Z"/><path class="cls-1" d="M678.71,128.56c6.71,52.5,64.68,88.35,64.68,88.35s44.52-49,40.4-101.78C778,41,715.73.38,715.73.38S672,76.06,678.71,128.56Z"/><path class="cls-1" d="M327.84,674.08C270.31,662.38,213.07,705,213.07,705s36.05,61.6,93.58,73.3,143.7-25.05,143.7-25.05S385.38,685.78,327.84,674.08Z"/><path class="cls-1" d="M164.91,685.78c54.5-17.56,80-89.92,80-89.92s-63-44.26-117.42-26.31C37.33,599.28,20.08,668.3,20.08,668.3S110.41,703.35,164.91,685.78Z"/><path class="cls-1" d="M1096.92,838.09c-36.25-54.27-121.85-60.72-121.85-60.72s-21.05,78.1,9.42,135.81c49.51,93.77,140.08,88,140.08,88S1133.17,892.36,1096.92,838.09Z"/><path class="cls-1" d="M79.62,512.86C125.48,534.71,186.8,505,186.8,505S175.25,436.75,130,413.74,0,410.08,0,410.08,13.33,481.28,79.62,512.86Z"/><path class="cls-1" d="M373.05,261.19c42.59,37.05,113,25.81,113,25.81s14.5-60.33-41.63-114.66c-40.57-39.27-134-38.17-134-38.17S330.45,224.13,373.05,261.19Z"/><path class="cls-1" d="M1284.9,859C1245.74,816.87,1168,825.6,1168,825.6s-14.3,77,24.85,119,136.64,54.51,136.64,54.51S1324.06,901,1284.9,859Z"/><path class="cls-1" d="M270.09,460.63C279.7,523.23,353,563.92,353,563.92s54.05-60.35,48.13-123.41C392,343,313.39,305.74,313.39,305.74S260.48,398,270.09,460.63Z"/><path class="cls-1" d="M1158.71,418.7c-56.14,10.11-91,77.62-91,77.62s56.07,50.35,112.35,41c95.41-15.86,119.21-82.72,119.21-82.72S1214.86,408.58,1158.71,418.7Z"/><path class="cls-1" d="M1049.45,293.06c16.72,58.68-34.68,124.75-34.68,124.75s-78.51-29.06-95.22-87.74S945.81,175.8,945.81,175.8,1032.73,234.38,1049.45,293.06Z"/><path class="cls-1" d="M133.39,963.11C168,933.27,226.59,941,226.59,941s-4.53,69.16-37.6,100.69S90.17,1071,90.17,1071,87.89,1002.35,133.39,963.11Z"/><path class="cls-1" d="M1261.52,329.6c-42.87,39.79-120.46,25.55-120.46,25.55s-7.71-78.33,35.3-118,142.09-45.48,142.09-45.48S1328.67,267.28,1261.52,329.6Z"/><path class="cls-1" d="M581.64,539.86c33.64,60.91,4,141.75,4,141.75s-84.23-17.92-117.88-78.83-20.89-172.39-20.89-172.39S548,478.94,581.64,539.86Z"/><path class="cls-1" d="M670.35,256.63c20,56.15-12.17,118.89-12.17,118.89s-64.56-28.32-84.54-84.47,2.11-147.14,2.11-147.14S650.36,200.47,670.35,256.63Z"/><path class="cls-1" d="M1221.73,773.86c-57.06,2.3-106.75-46.37-106.75-46.37s42.62-56.38,99.61-60.2S1350,711.73,1350,711.73,1302,770.61,1221.73,773.86Z"/><path class="cls-1" d="M251.8,313.81c4.35,50.7-46.63,96.47-46.63,96.47s-56.46-36.57-62.39-87.11c-7.45-63.46,44.44-122,44.44-122S247.45,263.12,251.8,313.81Z"/><path class="cls-1" d="M1161,120.36c3.31,53.56-51.6,100.53-51.6,100.53s-59.24-39.94-63.58-93.42C1039.7,52,1095.76,0,1095.76,0S1157.7,66.8,1161,120.36Z"/><path class="cls-1" d="M190.33,781.53c50.2,4.48,86.16,61.18,86.16,61.18s-45.43,49.43-95.63,44.95S69.45,824.23,69.45,824.23,140.13,777.05,190.33,781.53Z"/><path class="cls-1" d="M935.56,128.7c-36.25,31.32-93.42,26-93.42,26s-7.77-69.88,28.35-101.37C922,8.45,986.91,18.56,986.91,18.56S971.82,97.37,935.56,128.7Z"/></g></g></svg>